<svg xmlns="http://www.w3.org/2000/svg" viewBox="0 0 512 512" fill="none">
  <rect width="512" height="512" rx="112" fill="#10b981"/>
  <rect x="16" y="16" width="480" height="480" rx="96" fill="#0d9668"/>
  <!-- Car body -->
  <path d="M128 296 L168 216 L344 216 L384 296 L384 340 L128 340 Z" fill="white" opacity="0.95"/>
  <!-- Car roof -->
  <path d="M188 216 L220 156 L292 156 L324 216 Z" fill="white" opacity="0.85"/>
  <!-- Windows -->
  <path d="M196 216 L222 166 L256 166 L256 216 Z" fill="#10b981" opacity="0.6"/>
  <path d="M264 216 L264 166 L290 166 L316 216 Z" fill="#10b981" opacity="0.6"/>
  <!-- Headlights -->
  <rect x="376" y="260" width="16" height="24" rx="4" fill="#fde68a"/>
  <rect x="120" y="260" width="16" height="24" rx="4" fill="#fde68a"/>
  <!-- Wheels -->
  <circle cx="196" cy="340" r="32" fill="#1f2937"/>
  <circle cx="196" cy="340" r="18" fill="#6b7280"/>
  <circle cx="196" cy="340" r="8" fill="#9ca3af"/>
  <circle cx="316" cy="340" r="32" fill="#1f2937"/>
  <circle cx="316" cy="340" r="18" fill="#6b7280"/>
  <circle cx="316" cy="340" r="8" fill="#9ca3af"/>
  <!-- Wrench overlay -->
  <g transform="translate(310, 120) rotate(45)">
    <rect x="-10" y="-50" width="20" height="80" rx="6" fill="white" opacity="0.9"/>
    <circle cx="0" cy="-50" r="20" fill="none" stroke="white" stroke-width="8" opacity="0.9"/>
  </g>
</svg>
